<?xml version="1.0" encoding="UTF-8"?>
<svg width="60px" height="60px" viewBox="0 0 60 60" version="1.1" xmlns="http://www.w3.org/2000/svg" xmlns:xlink="http://www.w3.org/1999/xlink">
    <!-- Generator: Sketch 51.1 (57501) - http://www.bohemiancoding.com/sketch -->
    <title>omni_channel</title>
    <desc>Created with Sketch.</desc>
    <defs></defs>
    <g id="Page-1" stroke="none" stroke-width="1" fill="none" fill-rule="evenodd">
        <g id="omni_channel" fill-rule="nonzero">
            <rect id="Rectangle" fill="#9A3DD6" x="0" y="0" width="60" height="60" rx="6"></rect>
            <path d="M51.2,6.7 L38.6,6.7 C37.8,6.7 37.5,7.4 38.2,8.1 L42.2,12.1 L42.7,12.6 L35.2,20 C34.6,20.6 34.6,21.6 35.1,22.2 C35.1,22.2 40.2,27.4 39.7,33.3 C39.7,41.7 33.6,48.4 25.2,48.4 C19,49 14.1,43.3 14.1,43.3 C13.5,42.7 12.6,42.7 12,43.3 L8.3,47 C7.7,47.6 7.7,48.5 8.3,49.1 L9.5,50.3 C10.1,50.9 11,50.9 11.6,50.3 L13,49 C16.4,51.7 20.7,53.2 25.3,53.2 C36.3,53.2 45.2,44.3 45.2,33.3 C45.2,28.7 43.6,24.4 41,21 L46.1,15.9 L46.8,16.6 L50.8,20.6 C51.4,21.3 52.2,21 52.2,20.2 L52.2,7.6 C52.1,7.1 51.7,6.7 51.2,6.7 Z" id="Shape" fill="#FFFFFF"></path>
            <circle id="Oval" fill="#FFFFFF" cx="25.1" cy="33.5" r="9.9"></circle>
        </g>
    </g>
</svg>